<?xml version="1.0" encoding="UTF-8" standalone="no"?>
<!-- Created with Inkscape (http://www.inkscape.org/) -->

<svg
   width="135.46667mm"
   height="135.46667mm"
   viewBox="0 0 135.46668 135.46668"
   version="1.1"
   id="svg1"
   xml:space="preserve"
   xmlns:xlink="http://www.w3.org/1999/xlink"
   xmlns="http://www.w3.org/2000/svg"
   xmlns:svg="http://www.w3.org/2000/svg"><defs
     id="defs1"><clipPath
       clipPathUnits="userSpaceOnUse"
       id="clipPath287"><use
         x="0"
         y="0"
         xlink:href="#g286"
         id="use287" /></clipPath></defs><path
     style="fill:none;fill-opacity:1;stroke:#bfbfbf;stroke-width:4.16337;stroke-linecap:round;stroke-linejoin:round;stroke-dasharray:none;stroke-opacity:1"
     d="m 77.87361,65.957078 1.17994,-6.925059 h 18.99527 l -1.74148,6.668371"
     id="path295" /><path
     id="path268"
     style="fill:#353535;fill-opacity:1;stroke-width:18.4661;stroke-linecap:round;stroke-linejoin:round"
     d="m 25.0986,132.44185 h 97.88709 L 135.46668,70.463847 H 36.47531 Z" /><path
     id="path269"
     style="fill:#434343;fill-opacity:1;stroke-width:18.4661;stroke-linecap:round;stroke-linejoin:round"
     d="m 20.0806,127.67839 98.03969,-0.75778 12.32838,-61.220219 H 31.45731 Z" /><path
     id="path273"
     style="fill:#1e1e1e;fill-opacity:1;stroke-width:17.5465;stroke-linecap:round;stroke-linejoin:round"
     d="m 22.82888,126.13507 93.15711,-0.72004 11.7144,-58.171322 H 33.63901 Z" /><path
     style="fill:#747474;fill-opacity:1;stroke:none;stroke-width:12.2124;stroke-linecap:round;stroke-linejoin:round;stroke-dasharray:none;stroke-opacity:1"
     d="m 130.44866,65.70039 5.018,4.763456 -12.48098,61.978004 -4.8654,-5.52125 z"
     id="path272" /><path
     style="fill:#2d2d2d;fill-opacity:1;stroke:none;stroke-width:4.86;stroke-linecap:round;stroke-linejoin:round"
     d="m 5.018,77.838571 h 97.88709 l 15.2152,49.082039 -3.8454,8.54607 H 15.28353 L 0,82.602026 Z"
     id="path13" /><path
     style="fill:#828282;fill-opacity:1;stroke:none;stroke-width:4.86;stroke-linecap:round;stroke-linejoin:round"
     d="m 101.64883,94.73685 -3.76174,-12.134823 -6.3277,-2e-6 5.00955,-4.763453 h 6.33615 l 2.12139,6.8433 z"
     id="path14" /><g
     id="g7"
     transform="translate(-195.23118,-2.7753225)"><g
       id="g287"
       clip-path="url(#clipPath287)"
       transform="matrix(1.0524821,0,0,1.0524821,-12.29252,-4.3342382)"><g
         id="g286"
         style="fill:#2d2d2d;fill-opacity:1"><path
           id="rect263"
           style="fill:#2d2d2d;fill-opacity:1;stroke-width:17.5453;stroke-linecap:round;stroke-linejoin:round"
           d="m 197.17552,85.238113 h 93.00594 l 15.57062,50.228547 h -94.05515 z" /></g></g><path
       d="m 304.68396,132.02232 a 56.336456,21.158676 0 0 0 -51.61446,-12.73202 56.336456,21.158676 0 0 0 -43.77081,7.88245 l 2.39803,8.2939 h 94.05516 z"
       style="fill:#ffffff;fill-opacity:1;stroke:none;stroke-width:2.05964;stroke-linecap:round;stroke-linejoin:round;stroke-dasharray:none;stroke-opacity:1"
       id="path3"
       transform="matrix(1.0524821,0,0,1.0524821,-12.292519,-4.3342383)" /><path
       style="fill:#747474;fill-opacity:1;stroke:none;stroke-width:12.2124;stroke-linecap:round;stroke-linejoin:round;stroke-dasharray:none;stroke-opacity:1"
       d="m 309.50607,138.242 3.8454,-8.54607 -15.2152,-49.082036 -5.018,4.763453 z"
       id="path270" /><path
       style="fill:#828282;fill-opacity:1;stroke:none;stroke-width:12.2124;stroke-linecap:round;stroke-linejoin:round;stroke-dasharray:none;stroke-opacity:1"
       d="m 200.24918,80.613894 -5.01799,4.763453 h 97.88708 l 5.018,-4.763453 z"
       id="path271" /></g><path
     style="fill:none;fill-opacity:1;stroke:#bfbfbf;stroke-width:6.16764;stroke-linecap:round;stroke-linejoin:round;stroke-dasharray:none;stroke-opacity:1"
     d="M 37.29725,78.935473 31.45731,65.70039 h 28.13975 l 5.00806,12.854823"
     id="path288" /><g
     id="g6"
     transform="translate(-195.23118,-2.7753225)"><path
       style="fill:#ffbc00;fill-opacity:1;stroke-width:5.29167;stroke-linecap:round;stroke-linejoin:round"
       id="path3-1"
       d="m 7.4552012,38.01793 20.5725108,-10e-7 h 20.57251 L 38.313967,55.834246 28.027712,73.650562 17.741457,55.834245 Z"
       transform="matrix(0.71426169,0,0.11853245,0.59900599,224.35813,91.100035)" /><path
       style="fill:#ffffff;fill-opacity:1;stroke-width:3.37975;stroke-linecap:round;stroke-linejoin:round"
       id="path4-2"
       d="m 214.12089,106.49952 a 10.486002,10.689333 0 0 1 -5.243,9.25723 10.486002,10.689333 0 0 1 -10.486,0 10.486002,10.689333 0 0 1 -5.243,-9.25723 h 10.486 z"
       transform="matrix(1,0,0.19411784,0.98097822,0,0)" /><path
       style="fill:#ffffff;fill-opacity:1;stroke-width:3.37975;stroke-linecap:round;stroke-linejoin:round"
       id="path5-7"
       d="m -238.57955,106.49952 a 10.486002,10.689333 0 0 1 -5.243,9.25723 10.486002,10.689333 0 0 1 -10.486,0 10.486002,10.689333 0 0 1 -5.243,-9.25723 h 10.486 z"
       transform="matrix(-1,0,0.19411784,0.98097822,0,0)" /><ellipse
       style="fill:#2d2d2d;fill-opacity:1;stroke:none;stroke-width:2.55118;stroke-linecap:round;stroke-linejoin:round;stroke-dasharray:none;stroke-opacity:1"
       id="path128-0"
       cx="203.48105"
       cy="106.44191"
       rx="6.084198"
       ry="6.2906981"
       transform="matrix(1,0,0.19411784,0.98097822,0,0)" /><ellipse
       style="fill:#2d2d2d;fill-opacity:1;stroke:none;stroke-width:2.55118;stroke-linecap:round;stroke-linejoin:round;stroke-dasharray:none;stroke-opacity:1"
       id="ellipse128-9"
       cx="249.50372"
       cy="105.90966"
       rx="6.084198"
       ry="6.2906981"
       transform="matrix(1,0,0.19411784,0.98097822,0,0)" /></g><path
     d="m 123.37739,23.572119 v 9.463046 c 0,5.711622 -1.69986,8.272802 -4.25108,8.272802 -2.12711,0 -3.20409,-1.295715 -3.20409,-4.993928 v -12.74192 h -6.10515 v 13.656774 c 0,4.956396 1.5394,8.088945 6.42009,8.088945 3.58689,0 6.36409,-2.35373 7.76859,-7.640149 l 0.43987,0.162003 v 6.438342 c 0,3.997518 -1.57951,6.506753 -5.22892,6.506753 -3.11768,0 -6.82077,-1.917915 -8.68358,-3.320203 v 5.946154 c 1.55243,0.171827 3.47603,0.348872 5.02778,0.348872 9.19288,0 13.93233,-3.921979 13.93233,-15.164376 V 23.572119 Z m -98.084794,4.092853 c 0,-3.161849 -3.66243,-4.524547 -8.33773,-4.524547 -2.84386,0 -6.05954,0.526395 -9.0459297,1.468326 v 6.182907 c 4.4010197,-3.205392 9.2907497,-4.577597 12.4403997,-4.577597 1.98047,0 3.32433,0.552684 3.32433,1.542602 0,4.079231 -17.7002194,3.432799 -17.7002194,12.247039 0,3.378482 2.3231597,5.314138 5.5915894,5.314138 4.94372,0 8.68311,-4.804372 11.48056,-10.660739 l 0.56678,0.203667 c -1.47339,3.57881 -4.52233,7.502848 -5.11618,10.025392 h 6.3647 V 31.835751 h -1.47007 c -2.13376,4.636502 -5.26045,8.908939 -8.50701,8.908939 -1.48211,0 -2.42499,-0.899181 -2.42499,-2.03954 0,-4.880226 12.83377,-5.857313 12.83377,-11.040166 m 62.15179,-4.09285 h 6.10562 v 21.314025 h -6.10562 z m -9.87558,-0.431675 c -3.59227,0 -6.37246,2.360376 -7.77491,7.663267 l -0.57185,-0.210453 c 0.48364,-1.93438 1.32327,-4.228251 1.45772,-7.021112 h -6.36454 l -0.007,21.314025 h 6.12067 v -9.463044 c 0,-5.71162 1.69985,-8.272962 4.25105,-8.272962 2.12711,0 3.20413,1.295715 3.20413,4.994087 v 12.741919 h 6.10515 V 31.229413 c 0,-4.956397 -1.53943,-8.088944 -6.42013,-8.088944 m -27.92735,0.431675 c -2.46078,0 -4.19389,-1.492714 -4.19389,-3.084092 0,-1.557797 1.66786,-2.631486 4.48749,-2.631486 2.02623,0 4.58044,0.564874 7.32421,1.950535 V 14.17529 c -2.15736,-0.2412 -4.04186,-0.3362 -5.68169,-0.3362 -6.94288,0 -9.84866,2.482478 -9.82902,5.40456 0.0119,1.791384 0.74667,3.123836 3.17515,3.985795 v 0.342702 h -8.1515 c -2.75882,0 -4.22208,-1.719961 -4.22208,-3.028024 0,-1.640466 1.45186,-2.687553 3.54413,-2.687553 1.45978,0 2.66475,0.451179 4.16317,1.255807 v -4.937079 c -7.84206,-1.306635 -11.43006,1.518849 -11.40614,5.068363 0.0119,1.791383 0.74667,3.123834 3.17514,3.985794 v 0.342702 h -5.56513 v 1.757336 h 3.38402 l 0.008,19.556531 h 6.10626 l -0.009,-19.556531 h 6.79228 l 0.008,19.556531 h 6.10626 l -0.009,-19.556531 h 5.70798 l 0.007,19.556531 h 6.10626 L 60.661646,23.572 h -11.01921 z m 41.28077,-7.514407 c -2.0191,0 -3.82537,1.187708 -3.82537,3.058275 0,1.484636 1.1877,2.4991 2.97418,2.4991 2.0142,0 3.79577,-1.19262 3.79577,-3.07316 -1.7e-4,-1.484483 -1.16808,-2.484215 -2.94458,-2.484215 m 13.559364,1.477352 -6.100052,1.750685 v 4.28637 h -2.856212 v 1.757336 h 2.856212 v 19.556687 h 6.100052 V 25.32948 h 3.78752 v -1.757361 h -3.78752 z"
     id="path1-3"
     style="fill:#ffffff;fill-opacity:1;stroke:#2d2d2d;stroke-width:4.26478;stroke-dasharray:none;stroke-opacity:1;paint-order:stroke markers fill" /></svg>
